<?xml version="1.0" encoding="UTF-8"?>
<svg id="Ebene_1" data-name="Ebene 1" xmlns="http://www.w3.org/2000/svg" viewBox="0 0 128 128">
  <defs>
    <style>
      .cls-1 {
        fill: none;
        stroke: #383838;
        stroke-miterlimit: 10;
      }

      .cls-2 {
        fill: #2b2b2b;
      }

      .cls-2, .cls-3, .cls-4 {
        stroke-width: 0px;
      }

      .cls-3 {
        fill: #bfbfbf;
      }

      .cls-4 {
        fill: #383838;
      }
    </style>
  </defs>
  <rect class="cls-2" width="128" height="128"/>
  <circle class="cls-4" cx="18.11" cy="-14.36" r="53.09"/>
  <circle class="cls-4" cx="106.17" cy="107.64" r="34.97"/>
  <circle class="cls-4" cx="64" cy="70.51" r="6.51"/>
  <g>
    <path class="cls-3" d="m12.35,16.51v3.99h-3.92v-11.59h6.14c4.38,0,6.57,1.23,6.57,3.69,0,1.16-.63,2.11-1.89,2.83-1.26.72-2.94,1.08-5.04,1.08h-1.87Zm0-5.59v3.61h1.54c2.09,0,3.13-.61,3.13-1.83s-1.04-1.79-3.13-1.79h-1.54Z"/>
    <path class="cls-3" d="m27.14,20.5h-3.83v-12.26h3.83v12.26Z"/>
    <path class="cls-3" d="m40.7,20.5h-3.63v-1.19h-.05c-.83.93-2.07,1.39-3.7,1.39-1.2,0-2.15-.23-2.84-.68s-1.04-1.06-1.04-1.82c0-1.61,1.43-2.53,4.28-2.78l3.37-.3c0-.91-.74-1.36-2.21-1.36s-2.89.29-4.22.88v-1.92c.53-.18,1.26-.35,2.19-.49s1.77-.21,2.53-.21c3.54,0,5.31,1.18,5.31,3.53v4.95Zm-3.6-3.36v-.56l-2.26.19c-1.24.11-1.87.48-1.87,1.12,0,.29.15.53.45.72s.71.28,1.23.28c.72,0,1.31-.17,1.76-.5s.68-.75.68-1.26Z"/>
    <path class="cls-3" d="m55.72,20.5h-3.82v-4.6c0-1.28-.69-1.92-2.06-1.92-.66,0-1.21.17-1.64.51-.43.34-.64.77-.64,1.29v4.72h-3.83v-8.28h3.83v1.31h.05c.91-1.01,2.24-1.51,3.99-1.51,2.75,0,4.12,1.14,4.12,3.41v5.07Z"/>
    <path class="cls-3" d="m69.91,17.09h-8.1c.13,1.2,1.27,1.8,3.41,1.8,1.37,0,2.57-.22,3.6-.65v1.84c-1.15.41-2.64.61-4.47.61-2,0-3.56-.37-4.67-1.11-1.11-.74-1.66-1.77-1.66-3.1s.6-2.46,1.79-3.27c1.2-.8,2.67-1.2,4.41-1.2s3.21.36,4.2,1.08,1.49,1.69,1.49,2.92v1.08Zm-3.55-1.57c0-1.19-.72-1.78-2.16-1.78-.61,0-1.15.17-1.59.51-.45.34-.72.76-.82,1.27h4.57Z"/>
    <path class="cls-3" d="m79.7,20.41c-.57.2-1.42.3-2.56.3-2.7,0-4.05-.94-4.05-2.81v-3.79h-2.01v-1.88h2.01v-1.79l3.82-.73v2.51h2.79v1.88h-2.79v3.35c0,.86.51,1.29,1.54,1.29.4,0,.82-.08,1.25-.23v1.89Z"/>
    <path class="cls-3" d="m7.63,39.93v-2.59c.7.39,1.47.69,2.29.89.82.2,1.66.29,2.5.29.49,0,.92-.03,1.29-.09.37-.06.67-.14.92-.25.25-.1.43-.23.55-.37.12-.14.18-.3.18-.46,0-.23-.1-.43-.29-.61s-.46-.34-.79-.49-.73-.3-1.19-.44-.96-.28-1.49-.43c-1.36-.38-2.37-.84-3.04-1.38s-1-1.2-1-1.97c0-.6.18-1.12.55-1.56.36-.43.86-.79,1.49-1.07s1.35-.49,2.18-.62c.82-.13,1.7-.2,2.62-.2s1.71.04,2.41.11,1.34.19,1.93.34v2.42c-.29-.13-.61-.25-.95-.36-.34-.1-.7-.19-1.06-.25s-.73-.12-1.09-.15c-.36-.03-.7-.05-1.02-.05-.44,0-.85.03-1.21.08s-.67.14-.92.24c-.25.1-.44.23-.58.37s-.21.3-.21.48c0,.19.08.37.23.52.15.15.37.3.65.44.28.14.63.27,1.03.4.4.13.86.27,1.37.41.7.19,1.32.4,1.87.62.55.22,1.03.46,1.42.74.4.27.7.59.91.94.21.35.32.76.32,1.23,0,.65-.18,1.19-.55,1.63s-.87.79-1.5,1.07c-.63.27-1.36.47-2.2.59-.84.12-1.72.18-2.65.18s-1.86-.05-2.72-.16c-.86-.11-1.61-.27-2.24-.48Z"/>
    <path class="cls-3" d="m23.92,30.78c-.65,0-1.18-.13-1.59-.38-.41-.26-.62-.57-.62-.94s.21-.7.62-.94c.41-.24.94-.36,1.59-.36s1.19.12,1.59.36c.41.24.61.56.61.94s-.2.71-.61.95c-.41.25-.94.37-1.59.37Zm1.89,9.59h-3.83v-8.28h3.83v8.28Z"/>
    <path class="cls-3" d="m48.75,40.37h-3.82v-4.72c0-1.2-.66-1.8-1.99-1.8-.63,0-1.14.18-1.54.54-.4.36-.59.81-.59,1.35v4.63h-3.83v-4.77c0-1.17-.65-1.75-1.95-1.75-.65,0-1.18.17-1.57.52-.39.35-.59.81-.59,1.41v4.6h-3.83v-8.28h3.83v1.29h.05c.4-.44.95-.8,1.67-1.08.72-.28,1.5-.42,2.35-.42,1.75,0,2.95.51,3.6,1.54.95-1.03,2.34-1.54,4.17-1.54,2.7,0,4.05,1.11,4.05,3.33v5.15Z"/>
    <path class="cls-3" d="m63.58,40.37h-3.82v-1.26h-.06c-.95.98-2.21,1.46-3.8,1.46-2.88,0-4.32-1.16-4.32-3.48v-5h3.82v4.77c0,1.17.7,1.75,2.09,1.75.69,0,1.24-.16,1.65-.48.41-.32.62-.76.62-1.31v-4.74h3.82v8.28Z"/>
    <path class="cls-3" d="m70.64,40.37h-3.83v-12.26h3.83v12.26Z"/>
    <path class="cls-3" d="m84.2,40.37h-3.63v-1.19h-.05c-.83.93-2.07,1.39-3.7,1.39-1.21,0-2.15-.23-2.84-.68-.69-.46-1.04-1.06-1.04-1.82,0-1.61,1.43-2.53,4.28-2.78l3.37-.3c0-.91-.74-1.36-2.21-1.36s-2.89.29-4.22.88v-1.92c.53-.18,1.26-.35,2.19-.49s1.77-.21,2.53-.21c3.54,0,5.31,1.18,5.31,3.53v4.95Zm-3.6-3.36v-.56l-2.25.19c-1.25.11-1.87.48-1.87,1.12,0,.29.15.53.46.72.3.19.71.28,1.23.28.72,0,1.31-.17,1.76-.5.45-.33.68-.75.68-1.26Z"/>
    <path class="cls-3" d="m94.74,40.27c-.57.2-1.42.3-2.56.3-2.7,0-4.05-.94-4.05-2.81v-3.79h-2.01v-1.88h2.01v-1.79l3.82-.73v2.51h2.79v1.88h-2.79v3.35c0,.86.51,1.29,1.54,1.29.4,0,.82-.08,1.25-.24v1.89Z"/>
    <path class="cls-3" d="m102.81,40.57c-2.07,0-3.7-.39-4.88-1.16s-1.78-1.82-1.78-3.15.61-2.44,1.84-3.21c1.23-.77,2.89-1.16,4.98-1.16s3.68.39,4.85,1.16c1.17.77,1.76,1.8,1.76,3.07,0,1.37-.6,2.46-1.81,3.26-1.21.8-2.86,1.2-4.97,1.2Zm.1-6.73c-.91,0-1.61.21-2.11.62s-.75,1-.75,1.76c0,1.59.96,2.39,2.89,2.39s2.75-.82,2.75-2.45c0-1.55-.93-2.32-2.78-2.32Z"/>
    <path class="cls-3" d="m120.18,34.4c-.46-.17-1-.25-1.61-.25-.83,0-1.48.2-1.95.61-.47.41-.7.96-.7,1.66v3.95h-3.83v-8.28h3.83v1.54h.05c.61-1.12,1.7-1.68,3.27-1.68.4,0,.72.03.95.1v2.35Z"/>
  </g>
  <circle class="cls-1" cx="106.17" cy="107.64" r="56.64"/>
</svg>