<?xml version="1.0" encoding="utf-8"?>
<!-- Generator: Adobe Illustrator 28.1.0, SVG Export Plug-In . SVG Version: 6.00 Build 0)  -->
<svg version="1.1" id="Ebene_1" xmlns="http://www.w3.org/2000/svg" xmlns:xlink="http://www.w3.org/1999/xlink" x="0px" y="0px"
	 viewBox="0 0 24 24" style="enable-background:new 0 0 24 24;" xml:space="preserve">
<style type="text/css">
	.st0{fill:none;stroke:#FFFFFF;stroke-width:2;stroke-linecap:round;stroke-linejoin:round;}
</style>
<path class="st0" d="M18,11V6c0-1.1-0.9-2-2-2l0,0c-1.1,0-2,0.9-2,2l0,0"/>
<path class="st0" d="M14,10V4c0-1.1-0.9-2-2-2l0,0c-1.1,0-2,0.9-2,2v2"/>
<path class="st0" d="M10,10.5V6c0-1.1-0.9-2-2-2l0,0C6.9,4,6,4.9,6,6v8"/>
<path class="st0" d="M18,8c0-1.1,0.9-2,2-2s2,0.9,2,2v6c0,4.4-3.6,8-8,8h-2c-2.8,0-4.5-0.9-6-2.3l-3.6-3.6c-0.7-0.8-0.7-2.1,0.1-2.8
	c0.8-0.7,1.9-0.7,2.7,0L7,15"/>
</svg>
