<?xml version="1.0" encoding="utf-8"?>
<!-- Generator: Adobe Illustrator 28.1.0, SVG Export Plug-In . SVG Version: 6.00 Build 0)  -->
<svg version="1.1" id="Ebene_1" xmlns="http://www.w3.org/2000/svg" xmlns:xlink="http://www.w3.org/1999/xlink" x="0px" y="0px"
	 viewBox="0 0 24 24" style="enable-background:new 0 0 24 24;" xml:space="preserve">
<style type="text/css">
	.st0{fill:none;stroke:#FFFFFF;stroke-width:2;stroke-linecap:round;stroke-linejoin:round;}
</style>
<path class="st0" d="M4.5,16.5c-1.5,1.3-2,5-2,5s3.7-0.5,5-2c0.7-0.8,0.7-2.1-0.1-2.9C6.6,15.8,5.4,15.8,4.5,16.5z"/>
<path class="st0" d="M12,15l-3-3c0.5-1.4,1.2-2.7,2-3.9C13.4,4.3,17.5,2,22,2c0,2.7-0.8,7.5-6,11C14.7,13.8,13.4,14.5,12,15z"/>
<path class="st0" d="M9,12H4c0,0,0.6-3,2-4c1.6-1.1,5,0,5,0"/>
<path class="st0" d="M12,15v5c0,0,3-0.5,4-2c1.1-1.6,0-5,0-5"/>
</svg>
