<?xml version="1.0" encoding="utf-8"?>
<!-- Generator: Adobe Illustrator 28.1.0, SVG Export Plug-In . SVG Version: 6.00 Build 0)  -->
<svg version="1.1" id="Ebene_1" xmlns="http://www.w3.org/2000/svg" xmlns:xlink="http://www.w3.org/1999/xlink" x="0px" y="0px"
	 viewBox="0 0 24 24" style="enable-background:new 0 0 24 24;" xml:space="preserve">
<style type="text/css">
	.st0{fill:none;stroke:#FFFFFF;stroke-width:2;stroke-linecap:round;stroke-linejoin:round;}
</style>
<path class="st0" d="M20,8.5V4c0-1.1-0.9-2-2-2s-2,0.9-2,2v3"/>
<path class="st0" d="M18,21h-8c-2.2,0-4-1.8-4-4c0-3.9,3.1-7,7-7h0.2L9.6,6.4c-0.8-0.8-0.8-2,0-2.8c0.8-0.8,2-0.8,2.8,0L15.8,7H16
	c3.3,0,6,2.7,6,6v1c0,1.1-0.9,2-2,2h-1c-1.7,0-3,1.3-3,3"/>
<path class="st0" d="M7.6,12.5c-0.8-1.4-2.6-2-4.1-1.1s-2,2.6-1.1,4.1c0.7,1.3,2.2,1.8,3.6,1.3"/>
<path class="st0" d="M13,16c1.7,0,3,1.3,3,3c0,0.7-0.3,1.5-0.8,2"/>
<path class="st0" d="M18,12L18,12"/>
</svg>
