<?xml version="1.0" encoding="utf-8"?>
<!-- Generator: Adobe Illustrator 28.1.0, SVG Export Plug-In . SVG Version: 6.00 Build 0)  -->
<svg version="1.1" id="Ebene_1" xmlns="http://www.w3.org/2000/svg" xmlns:xlink="http://www.w3.org/1999/xlink" x="0px" y="0px"
	 viewBox="0 0 24 24" style="enable-background:new 0 0 24 24;" xml:space="preserve">
<style type="text/css">
	.st0{fill:none;stroke:#FFFFFF;stroke-width:2;stroke-linecap:round;stroke-linejoin:round;}
</style>
<path class="st0" d="M2,13c0,3.3,2.7,6,6,6s6-2.7,6-6c0-2.2-1.8-4-4-4s-4,1.8-4,4c0,1.1,0.9,2,2,2s2-0.9,2-2"/>
<circle class="st0" cx="10" cy="13" r="8"/>
<path class="st0" d="M2,21h12c4.4,0,8-3.6,8-8V7c0-1.1-0.9-2-2-2s-2,0.9-2,2v6"/>
<path class="st0" d="M18,3l1.1,2.2"/>
<path class="st0" d="M22,3l-1.1,2.2"/>
</svg>
